<svg width="19" height="19" viewBox="0 0 19 19" fill="none" xmlns="http://www.w3.org/2000/svg">
<path d="M18.3077 3.2014L9.54121 0.17848C9.47736 0.156449 9.40797 0.156449 9.34412 0.17848L0.577646 3.2014C0.518185 3.2219 0.466599 3.26044 0.430078 3.31164C0.393557 3.36285 0.373919 3.42417 0.373901 3.48707V17.9971C0.373901 18.0773 0.40575 18.1542 0.462441 18.2108C0.519131 18.2675 0.596021 18.2994 0.676194 18.2994H2.18765C2.26783 18.2994 2.34472 18.2675 2.40141 18.2108C2.4581 18.1542 2.48995 18.0773 2.48995 17.9971V8.62603H16.3954V17.9971C16.3954 18.0773 16.4272 18.1542 16.4839 18.2108C16.5406 18.2675 16.6175 18.2994 16.6977 18.2994H18.2091C18.2893 18.2994 18.3662 18.2675 18.4229 18.2108C18.4796 18.1542 18.5114 18.0773 18.5114 17.9971V3.48707C18.5114 3.42417 18.4918 3.36285 18.4553 3.31164C18.4187 3.26044 18.3671 3.2219 18.3077 3.2014ZM1.88536 8.32374V17.6948H0.978486V6.2077H1.88536V8.32374ZM16.3954 8.02145H2.48995V7.41686H16.3954V8.02145ZM16.3954 6.81228H2.48995V6.2077H16.3954V6.81228ZM17.9068 17.6948H17V6.2077H17.9068V17.6948ZM17.9068 5.60311H0.978486V3.7026L9.44267 0.783971L17.9068 3.7026V5.60311Z" fill="#F1F6FF"/>
<path d="M15.3213 13.1906L14.2029 12.6314L13.2053 10.6363C13.1301 10.4858 13.0143 10.3593 12.8709 10.2712C12.7276 10.183 12.5625 10.1367 12.3942 10.1375H6.49109C6.32258 10.1369 6.15728 10.1836 6.01394 10.2722C5.87059 10.3608 5.75492 10.4877 5.68004 10.6387L4.68247 12.6338L3.56399 13.1931C3.51388 13.2181 3.47171 13.2566 3.44219 13.3042C3.41267 13.3518 3.39697 13.4067 3.39683 13.4627V17.6948C3.39683 18.0287 3.66749 18.2994 4.00141 18.2994H5.21058C5.5445 18.2994 5.81516 18.0287 5.81516 17.6948V16.7879H13.0702V17.6948C13.0702 18.0287 13.3408 18.2994 13.6748 18.2994H14.8839C15.2178 18.2994 15.4885 18.0287 15.4885 17.6948V13.4627C15.4888 13.4063 15.4733 13.3509 15.4438 13.3028C15.4142 13.2547 15.3718 13.2159 15.3213 13.1906ZM6.22084 10.9092C6.24575 10.8589 6.28428 10.8166 6.33205 10.787C6.37982 10.7575 6.43492 10.7419 6.49109 10.7421H12.3942C12.4504 10.7419 12.5055 10.7575 12.5533 10.787C12.6011 10.8166 12.6396 10.8589 12.6645 10.9092L13.4879 12.5558H5.3974L6.22084 10.9092ZM5.21058 17.6948H4.00141V16.7879H5.21058V17.6948ZM14.8839 17.6948H13.6748V16.7879H14.8839V17.6948ZM14.8839 16.1833H4.00141V13.6495L4.97963 13.1604H13.9057L14.8839 13.6495V16.1833Z" fill="#F1F6FF"/>
<path d="M6.11746 13.765H5.21058C4.87666 13.765 4.60599 14.0357 4.60599 14.3696V14.9742C4.60599 15.3081 4.87666 15.5788 5.21058 15.5788H6.11746C6.45138 15.5788 6.72204 15.3081 6.72204 14.9742V14.3696C6.72204 14.0357 6.45138 13.765 6.11746 13.765ZM6.11746 14.9742H5.21058V14.3696H6.11746V14.9742ZM13.6748 13.765H12.7679C12.434 13.765 12.1633 14.0357 12.1633 14.3696V14.9742C12.1633 15.3081 12.434 15.5788 12.7679 15.5788H13.6748C14.0087 15.5788 14.2793 15.3081 14.2793 14.9742V14.3696C14.2793 14.0357 14.0087 13.765 13.6748 13.765ZM13.6748 14.9742H12.7679V14.3696H13.6748V14.9742ZM10.9541 13.765H7.93121C7.59729 13.765 7.32662 14.0357 7.32662 14.3696V14.9742C7.32662 15.3081 7.59729 15.5788 7.93121 15.5788H10.9541C11.288 15.5788 11.5587 15.3081 11.5587 14.9742V14.3696C11.5587 14.0357 11.288 13.765 10.9541 13.765ZM10.9541 14.9742H7.93121V14.3696H10.9541V14.9742Z" fill="#F1F6FF"/>
</svg>
