<svg width="134" height="134" viewBox="0 0 134 134" fill="none" xmlns="http://www.w3.org/2000/svg">
<path d="M67 0.0834961C53.7651 0.0834961 40.8275 4.00809 29.8231 11.361C18.8187 18.7139 10.2418 29.1648 5.17707 41.3923C0.112307 53.6197 -1.21287 67.0744 1.36913 80.055C3.95112 93.0355 10.3243 104.959 19.6828 114.317C29.0412 123.676 40.9647 130.049 53.9452 132.631C66.9258 135.213 80.3805 133.888 92.6079 128.823C104.835 123.758 115.286 115.181 122.639 104.177C129.992 93.1727 133.917 80.235 133.917 67.0002C133.917 49.2528 126.867 32.2322 114.317 19.6829C101.768 7.13363 84.7474 0.0834961 67 0.0834961ZM67 121.75C56.1715 121.75 45.5861 118.539 36.5825 112.523C27.5789 106.507 20.5615 97.9563 16.4176 87.9521C12.2737 77.9478 11.1895 66.9394 13.302 56.319C15.4146 45.6985 20.629 35.943 28.2859 28.2861C35.9428 20.6291 45.6984 15.4147 56.3188 13.3022C66.9393 11.1896 77.9477 12.2739 87.9519 16.4178C97.9562 20.5617 106.507 27.5791 112.523 36.5827C118.539 45.5863 121.75 56.1716 121.75 67.0002C121.75 81.5208 115.982 95.4466 105.714 105.714C95.4465 115.982 81.5206 121.75 67 121.75Z" fill="url(#paint0_linear_536_857)"/>
<path d="M87.0142 47.4726L60.9167 73.631L46.9859 59.6393C45.8403 58.4938 44.2867 57.8503 42.6667 57.8503C41.0467 57.8503 39.493 58.4938 38.3475 59.6393C37.202 60.7848 36.5585 62.3385 36.5585 63.9585C36.5585 64.7606 36.7165 65.5549 37.0234 66.296C37.3304 67.0371 37.7803 67.7104 38.3475 68.2776L56.5975 86.5276C57.1631 87.0978 57.8359 87.5504 58.5772 87.8592C59.3185 88.1681 60.1136 88.3271 60.9167 88.3271C61.7198 88.3271 62.5149 88.1681 63.2562 87.8592C63.9975 87.5504 64.6703 87.0978 65.2359 86.5276L95.6525 56.111C96.798 54.9655 97.4416 53.4118 97.4416 51.7918C97.4416 50.1718 96.798 48.6182 95.6525 47.4726C94.507 46.3271 92.9534 45.6836 91.3334 45.6836C89.7134 45.6836 88.1597 46.3271 87.0142 47.4726Z" fill="url(#paint1_linear_536_857)"/>
<defs>
<linearGradient id="paint0_linear_536_857" x1="130.936" y1="-9.4065" x2="-23.8241" y2="175.527" gradientUnits="userSpaceOnUse">
<stop stop-color="#A0D39F"/>
<stop offset="1" stop-color="#08B89D"/>
</linearGradient>
<linearGradient id="paint1_linear_536_857" x1="126.434" y1="-13.1782" x2="-28.3258" y2="171.755" gradientUnits="userSpaceOnUse">
<stop stop-color="#A0D39F"/>
<stop offset="1" stop-color="#08B89D"/>
</linearGradient>
</defs>
</svg>
