<svg width="52" height="51" viewBox="0 0 52 51" fill="none" xmlns="http://www.w3.org/2000/svg">
<path d="M9.23401 50.5465C9.09893 50.5465 8.96267 50.5211 8.83261 50.4666C8.44201 50.3055 8.1864 49.9222 8.1864 49.4984V43.2109C8.1864 42.6315 8.65568 42.1633 9.23401 42.1633C9.81262 42.1633 10.282 42.6315 10.282 43.2109V46.9691L14.7806 42.4703C14.8777 42.3728 14.9931 42.2955 15.1202 42.2428C15.2473 42.1901 15.3836 42.1631 15.5212 42.1633H46.9572C48.1131 42.1633 49.0532 41.2231 49.0532 40.0672V10.7258C49.0532 9.56988 48.1131 8.6297 46.9572 8.6297H41.718C41.1386 8.6297 40.67 8.1604 40.67 7.58204C40.67 7.0034 41.1386 6.534 41.718 6.534H46.9572C49.2689 6.534 51.1488 8.41406 51.1488 10.7258V40.0672C51.1488 42.3789 49.2689 44.259 46.9572 44.259H15.9552L9.97501 50.2395C9.77838 50.4359 9.51191 50.5463 9.23401 50.5465ZM5.0428 44.259C2.73117 44.259 0.851196 42.3789 0.851196 40.0672V10.7258C0.851196 8.41406 2.73117 6.534 5.0428 6.534H10.282C10.8603 6.534 11.33 7.0033 11.33 7.58204C11.33 8.1604 10.8603 8.6297 10.282 8.6297H5.0428C3.88693 8.6297 2.9468 9.56988 2.9468 10.7258V40.0672C2.9468 41.2231 3.88693 42.1633 5.0428 42.1633C5.62112 42.1633 6.0904 42.6315 6.0904 43.2109C6.0904 43.7904 5.62112 44.259 5.0428 44.259Z" fill="#001645"/>
<path d="M40.6701 26.4446H39.6224C39.043 26.4446 38.5744 25.9749 38.5744 25.3965C38.5744 24.8182 39.043 24.3485 39.6224 24.3485H40.6701C41.8259 24.3485 42.7661 23.4087 42.7661 22.2528V20.1571C42.7661 19.0012 41.8259 18.061 40.6701 18.061H39.6224C39.043 18.061 38.5744 17.5917 38.5744 17.0133V14.9172C38.5744 7.98349 32.9338 2.34222 26 2.34222C19.0662 2.34222 13.4256 7.98349 13.4256 14.9172V17.0133C13.4256 17.5917 12.9563 18.061 12.3776 18.061C11.7993 18.061 11.33 17.5917 11.33 17.0133V14.9172C11.33 6.82757 17.9104 0.246521 26 0.246521C34.0897 0.246521 40.6701 6.82757 40.6701 14.9172V15.9653C42.9817 15.9653 44.8617 17.8453 44.8617 20.1571V22.2528C44.8617 24.5645 42.9817 26.4446 40.6701 26.4446Z" fill="#001645"/>
<path d="M12.3776 26.4445H11.33C9.0184 26.4445 7.13843 24.5645 7.13843 22.2527V20.157C7.13843 17.8453 9.0184 15.9652 11.33 15.9652H12.3776C12.9563 15.9652 13.4256 16.4345 13.4256 17.0133V25.3965C13.4256 25.9748 12.9564 26.4445 12.3776 26.4445ZM11.33 18.0609C10.1742 18.0609 9.23403 19.0011 9.23403 20.157V22.2527C9.23403 23.4087 10.1742 24.3484 11.33 24.3484V18.0609ZM26 40.0672C24.2666 40.0672 22.8564 38.6569 22.8564 36.9234C22.8564 35.1905 24.2666 33.7797 26 33.7797C27.3665 33.7797 28.5316 34.6558 28.9645 35.8758H29.1437C34.3442 35.8758 38.5745 31.6452 38.5745 26.4445V21.2047C38.5745 20.6263 39.0431 20.157 39.6225 20.157C40.2019 20.157 40.6701 20.6263 40.6701 21.2047V26.4445C40.6701 32.7999 35.4988 37.9715 29.1437 37.9715H28.0957C27.958 37.9716 27.8217 37.9446 27.6945 37.8919C27.5674 37.8393 27.4518 37.7621 27.3545 37.6647C27.2572 37.5674 27.1801 37.4518 27.1275 37.3246C27.0749 37.1974 27.0479 37.0611 27.048 36.9234C27.048 36.3451 26.5775 35.8758 26 35.8758C25.4226 35.8758 24.952 36.3451 24.952 36.9234C24.952 37.5021 25.4226 37.9715 26 37.9715C26.5784 37.9715 27.048 38.4401 27.048 39.0195C27.048 39.599 26.5784 40.0672 26 40.0672ZM35.4309 15.9652C34.8515 15.9652 34.3829 15.4959 34.3829 14.9172C34.3829 10.2949 30.6222 6.534 26 6.534C21.3779 6.534 17.6172 10.2948 17.6172 14.9172C17.6172 15.4958 17.1476 15.9652 16.5692 15.9652C15.9909 15.9652 15.5212 15.4959 15.5212 14.9172C15.5212 9.13899 20.2221 4.43829 26 4.43829C31.778 4.43829 36.4789 9.13899 36.4789 14.9172C36.4789 15.4958 36.0103 15.9652 35.4309 15.9652ZM20.7608 27.4922H22.8564V29.5883H20.7608V27.4922ZM24.952 27.4922H27.048V29.5883H24.952V27.4922Z" fill="#001645"/>
<path d="M29.1436 27.4922H31.2392V29.5883H29.1436V27.4922Z" fill="#001645"/>
</svg>
