<svg width="32" height="32" viewBox="0 0 32 32" fill="none" xmlns="http://www.w3.org/2000/svg">
<g clip-path="url(#clip0_17_3)">
<path d="M3.5317 29.7081L9.17145 27.9734L16.6542 29.8018V30.021C16.6542 30.021 16.6543 30.021 16.6544 30.021C24.7505 30.0209 31.3362 23.4351 31.3362 15.3389C31.3362 7.24266 24.7504 0.656795 16.6542 0.656795C8.55792 0.656795 1.97206 7.24266 1.97206 15.3389C1.97206 18.0677 2.72136 20.7183 4.1439 23.0274C3.86003 24.0244 3.47337 25.4205 3.15274 26.5853C2.98731 27.1862 2.83941 27.7258 2.73216 28.1176L2.60467 28.5838L2.56924 28.7134L2.55957 28.7487L2.55689 28.7585L2.556 28.7617L2.55559 28.7632C2.51885 28.8973 2.51892 29.0388 2.55581 29.1728C2.59269 29.3068 2.66502 29.4284 2.76518 29.5248L2.7652 29.5248C2.96881 29.7206 3.2629 29.7905 3.53146 29.7082L3.5317 29.7081ZM16.6542 28.4702H16.6539C14.1905 28.4726 11.7764 27.7803 9.68863 26.4727L9.68857 26.4726C9.5942 26.4136 9.48822 26.3755 9.37784 26.3611C9.26747 26.3466 9.15529 26.3561 9.04892 26.3889C9.0489 26.3889 9.04888 26.3889 9.04886 26.3889L4.42396 27.8125C4.85242 26.2466 5.28779 24.6826 5.73007 23.1206C5.792 22.9048 5.75695 22.6727 5.63554 22.4848L5.63522 22.4843C4.25327 20.3578 3.51937 17.8753 3.52286 15.3392V15.3389C3.52286 8.09883 9.41409 2.2076 16.6542 2.2076C23.8942 2.2076 29.7854 8.09883 29.7854 15.3389C29.7854 22.579 23.8942 28.4702 16.6542 28.4702Z" fill="url(#paint0_linear_17_3)" stroke="url(#paint1_linear_17_3)" stroke-width="0.438272"/>
<path d="M25.581 18.3944C24.5862 17.8322 23.7391 17.2683 23.121 16.8569C22.649 16.5431 22.3079 16.3166 22.0579 16.1888C21.359 15.8339 20.8293 16.0846 20.6277 16.2919C20.6026 16.3174 20.5801 16.3453 20.5604 16.3753C19.8345 17.4838 18.8866 18.5441 18.6091 18.6012C18.2885 18.5502 16.7878 17.6819 15.2962 16.4175C13.7734 15.1258 12.8153 13.8889 12.6746 13.0463C13.6516 12.0228 14.0035 11.3788 14.0035 10.646C14.0035 9.8907 12.2726 6.73727 11.9595 6.41858C11.6454 6.09935 10.9379 6.04943 9.85635 6.26884C9.75217 6.29031 9.65644 6.34237 9.58099 6.41858C9.45005 6.55187 6.38606 9.73163 7.84208 13.5855C9.44035 17.8151 13.5427 22.7315 18.7729 23.5302C19.3673 23.6207 19.9245 23.6656 20.4461 23.6656C23.523 23.6656 25.339 22.0898 25.8504 18.9637C25.869 18.8521 25.853 18.7374 25.8048 18.6354C25.7565 18.5334 25.6783 18.4492 25.581 18.3944ZM18.933 22.4452C13.4021 21.601 9.91832 16.0231 8.84814 13.1917C7.78657 10.3833 9.74427 7.87929 10.2357 7.31322C10.6356 7.2441 11.0564 7.21503 11.2321 7.24301C11.599 7.76245 12.8697 10.2061 12.9257 10.646C12.9257 10.934 12.8336 11.335 11.7365 12.4523C11.6863 12.5031 11.6466 12.5636 11.6195 12.6301C11.5924 12.6967 11.5785 12.768 11.5786 12.8401C11.5786 15.7121 17.5298 19.6966 18.5838 19.6966C19.5004 19.6966 20.6956 18.1284 21.3762 17.1065C21.4464 17.1134 21.5145 17.1351 21.5761 17.1701C21.7701 17.2694 22.1064 17.4926 22.5315 17.7757C23.093 18.1492 23.8388 18.6451 24.7193 19.159C24.3195 21.1172 23.2019 23.0979 18.933 22.4452Z" fill="url(#paint2_linear_17_3)"/>
</g>
<defs>
<linearGradient id="paint0_linear_17_3" x1="2.19119" y1="13.9403" x2="41.0182" y2="14.025" gradientUnits="userSpaceOnUse">
<stop stop-color="#105BFB"/>
<stop offset="1" stop-color="#5061FF"/>
</linearGradient>
<linearGradient id="paint1_linear_17_3" x1="2.19119" y1="13.9403" x2="41.0182" y2="14.025" gradientUnits="userSpaceOnUse">
<stop stop-color="#105BFB"/>
<stop offset="1" stop-color="#5061FF"/>
</linearGradient>
<linearGradient id="paint2_linear_17_3" x1="7.45053" y1="14.0526" x2="32.1586" y2="14.1092" gradientUnits="userSpaceOnUse">
<stop stop-color="#105BFB"/>
<stop offset="1" stop-color="#5061FF"/>
</linearGradient>
<clipPath id="clip0_17_3">
<rect width="31.5556" height="31.5556" fill="white"/>
</clipPath>
</defs>
</svg>
